<?xml version="1.0" encoding="UTF-8"?>
<svg version="1.1" xmlns="http://www.w3.org/2000/svg" width="187" height="133">
<path d="M0 0 C0.495 1.98 0.495 1.98 1 4 C-0.61949042 5.50594681 -2.24575974 7.00460668 -3.875 8.5 C-4.77992187 9.3353125 -5.68484375 10.170625 -6.6171875 11.03125 C-9 13 -9 13 -11 13 C-11.27972656 13.58394531 -11.55945313 14.16789062 -11.84765625 14.76953125 C-12.9270405 16.85878008 -14.12606449 18.73873134 -15.4375 20.6875 C-21.67669287 30.55241853 -23.41978825 42.36094945 -21.5390625 53.8046875 C-17.81549935 68.91797322 -9.55772261 80.95435554 3.44921875 89.53125 C12.68201037 94.84752818 22.79058972 97.57513888 33.40234375 95.5390625 C37.7914378 94.29755503 41.08676388 92.84003239 43.87109375 89.02734375 C46.36131862 84.55527902 48.1837052 79.77646889 50 75 C51.65 75.33 53.3 75.66 55 76 C51.23580329 92.20397062 41.789648 104.03838223 28 113 C13.1420252 120.66982739 -4.26192403 122.64603359 -20.5 118.4375 C-37.51655428 112.73865397 -49.28050086 101.74012193 -57.75 86.1875 C-62.81062222 75.48169525 -65.50933719 61.57515249 -62 50 C-60.35 50.33 -58.7 50.66 -57 51 C-57.03480469 51.84820312 -57.06960937 52.69640625 -57.10546875 53.5703125 C-57.50501849 70.88413463 -53.61495091 85.90976642 -41.45703125 98.73046875 C-37.61000747 102.28391997 -33.42340538 105.21113064 -29 108 C-28.89482217 105.08878932 -28.89482217 105.08878932 -29.50488281 102.65356445 C-30.02852217 99.84713636 -30.03562221 97.39233633 -29.921875 94.54296875 C-29.88320312 92.99706055 -29.88320312 92.99706055 -29.84375 91.41992188 C-29.78157474 89.27617072 -29.70361192 87.13281557 -29.609375 84.99023438 C-29.43334034 76.16099582 -31.59027933 71.7177303 -37.46484375 65.3125 C-38.28082031 64.549375 -39.09679687 63.78625 -39.9375 63 C-44.12969547 58.93257226 -47.76341205 54.86022282 -51 50 C-51.61875 49.113125 -52.2375 48.22625 -52.875 47.3125 C-55.29508417 40.18669661 -55.14372721 32.55909292 -52 25.6875 C-44.67261486 13.03855023 -31.33907521 5.10538053 -17.50390625 1.31640625 C-11.63882721 -0.0103277 -5.99582814 -0.22962746 0 0 Z M-36 16 C-42.32947219 20.70729614 -46.91789503 25.23320056 -49 33 C-50.01124151 40.07869054 -48.13108085 45.19738354 -44 51 C-41.16619121 54.11477373 -38.16271314 57.04977911 -35.07763672 59.91455078 C-29.69563549 64.96957391 -25.21193487 70.43591893 -24.91821289 78.1472168 C-24.9361792 78.90687744 -24.95414551 79.66653809 -24.97265625 80.44921875 C-24.99102539 81.72249023 -24.99102539 81.72249023 -25.00976562 83.02148438 C-25.04453733 84.77938699 -25.08350412 86.53721233 -25.12695312 88.29492188 C-25.23353559 96.61462359 -24.62085588 104.46765398 -19 111 C-11.14650108 116.5942732 -3.35046072 116.91198975 5.96484375 115.57421875 C16.33907153 113.30442126 26.74525491 108.89207784 34 101 C32.80117187 101.05220703 32.80117187 101.05220703 31.578125 101.10546875 C16.90625457 101.46709936 3.60128075 97.82596859 -7.8125 88.25 C-19.54387489 77.07019066 -26.88339379 61.30687915 -27.375 45.0625 C-26.90074873 29.92598018 -21.47092238 17.81169205 -11 7 C-19.15242934 4.09925189 -29.51303453 11.46958702 -36 16 Z " fill="#010101" transform="translate(105,7)"/>
<path d="M0 0 C2.73953113 -0.19735902 4.47468524 -0.30798079 6.87890625 1.1015625 C12.09931545 5.82536665 16.69229805 10.56790844 17.203125 17.92578125 C17.36458455 29.59123403 17.36458455 29.59123403 14 34 C11.4375 35.8125 11.4375 35.8125 9 37 C8.01 37.495 8.01 37.495 7 38 C3.22677098 38.42877602 1.32326576 38.17152877 -2.0625 36.375 C-5.33716 33.72740255 -7.61384879 31.4707654 -10 28 C-9.8125 25.625 -9.8125 25.625 -9 24 C-5.535 23.505 -5.535 23.505 -2 23 C-2.15984375 22.42507812 -2.3196875 21.85015625 -2.484375 21.2578125 C-4.1963023 13.761646 -2.49498675 7.11368245 0 0 Z M3 5 C1.07215468 10.78353595 0.78923661 17.82295686 2.9765625 23.5625 C5.19870926 27.27062221 6.98725943 29.25943091 11 31 C13.36340064 26.42091127 13.69265811 22.03908775 13 17 C11.09520011 11.56699123 7.51128581 8.38346436 3 5 Z M-3 29 C-1.25065102 31.08333079 -1.25065102 31.08333079 1 33 C2.32 33 3.64 33 5 33 C5 32.34 5 31.68 5 31 C1.91190305 29.23537317 0.76687864 29 -3 29 Z " fill="#010101" transform="translate(124,51)"/>
<path d="M0 0 C0.99 0 1.98 0 3 0 C2.5816538 4.88070564 0.67869365 6.88110756 -3 10 C-7.12157885 12.87261556 -10.95674859 14.50797547 -16 15 C-16 14.34 -16 13.68 -16 13 C-15.34773438 12.731875 -14.69546875 12.46375 -14.0234375 12.1875 C-8.12370196 9.54219085 -4.67540294 7.09968058 -1.25390625 1.57421875 C-0.84011719 1.05472656 -0.42632812 0.53523438 0 0 Z " fill="#010101" transform="translate(143,79)"/>
<path d="M0 0 C0 0.99 0 1.98 0 3 C-0.90492188 3.09087891 -0.90492188 3.09087891 -1.828125 3.18359375 C-3.02695313 3.30927734 -3.02695313 3.30927734 -4.25 3.4375 C-5.03890625 3.51871094 -5.8278125 3.59992188 -6.640625 3.68359375 C-8.82364639 3.97634993 -10.8773182 4.42064419 -13 5 C-8.49251112 0.34226149 -6.53321609 -0.12098548 0 0 Z " fill="#060606" transform="translate(160,75)"/>
<path d="M0 0 C0.66 0.33 1.32 0.66 2 1 C2 1.66 2 2.32 2 3 C1.38511719 3.26554687 0.77023438 3.53109375 0.13671875 3.8046875 C-0.67152344 4.15789062 -1.47976562 4.51109375 -2.3125 4.875 C-3.11300781 5.22304687 -3.91351563 5.57109375 -4.73828125 5.9296875 C-7.1961834 7.02571894 -7.1961834 7.02571894 -10 9 C-8.50521886 5.19510255 -6.30557786 3.33809165 -3 1 C-2.01 0.67 -1.02 0.34 0 0 Z " fill="#030303" transform="translate(157,69)"/>
</svg>
