<?xml version="1.0" encoding="UTF-8"?>
<svg version="1.1" xmlns="http://www.w3.org/2000/svg" width="226" height="154">
<path d="M0 0 C74.58 0 149.16 0 226 0 C226 50.82 226 101.64 226 154 C151.42 154 76.84 154 0 154 C0 103.18 0 52.36 0 0 Z " fill="#FDFDFD" transform="translate(0,0)"/>
<path d="M0 0 C0 0.66 0 1.32 0 2 C-0.825 2.61875 -1.65 3.2375 -2.5 3.875 C-10.97404687 10.74639025 -17.1306399 22.32997161 -19 33 C-20.24181161 44.94645556 -19.95533744 56.90948288 -15 68 C-14.525625 69.0725 -14.05125 70.145 -13.5625 71.25 C-6.60778431 85.42692045 4.90229867 97.21528899 19.67578125 103.22265625 C29.0048528 106.34279951 38.2834672 106.23602914 48 106 C45.42915006 112.60044058 37.94432866 115.58879103 31.88671875 118.4921875 C23.37953918 122.14584277 15.6217878 124.35407728 6.375 124.3125 C5.65054688 124.32861328 4.92609375 124.34472656 4.1796875 124.36132812 C-1.99117096 124.36691767 -6.03997418 122.77769784 -10.6875 118.5625 C-19.37361333 108.93734739 -18.33409377 99.1697782 -18.30273438 86.66992188 C-18.41064195 79.91351526 -18.60921743 74.98524421 -22.83276367 69.53100586 C-24 68 -24 68 -25 65 C-26.31829807 64.30407441 -27.65436257 63.64146874 -29 63 C-36.23421403 56.76158871 -44.17299047 48.79888887 -45.37109375 38.94921875 C-45.5239931 31.43916226 -44.9942559 26.70099023 -40 21 C-39.3915625 20.27296875 -38.783125 19.5459375 -38.15625 18.796875 C-28.96258248 8.71128451 -14.01755599 0 0 0 Z " fill="#FAFAFA" transform="translate(106,16)"/>
<path d="M0 0 C-0.56928805 3.28188177 -1.41931405 4.73984323 -3.94921875 6.8828125 C-4.54758545 7.40528564 -5.14595215 7.92775879 -5.76245117 8.46606445 C-6.39771729 9.01351318 -7.0329834 9.56096191 -7.6875 10.125 C-17.74613253 19.12722911 -24.41706386 29.76498665 -25.203125 43.56640625 C-25.4222005 62.24259273 -19.95371107 77.30143658 -7.046875 91.0859375 C2.84008358 100.6433308 15.32304877 105.89551559 28.9375 106.375 C36.74891828 106.24118555 42.06583737 104.8007916 47.75 99.375 C51.50096695 94.2695172 54.68278579 88.21381487 56 82 C57.98 82.495 57.98 82.495 60 83 C58.05696991 96.97902204 47.48496139 111.0639627 36.625 119.375 C21.85309018 129.35877353 3.45673917 134.22411372 -14.30078125 131.4921875 C-26.02347275 129.09530346 -35.54261982 124.22732668 -45 117 C-45.92232422 116.32710937 -45.92232422 116.32710937 -46.86328125 115.640625 C-58.75924207 106.34263263 -66.63414307 91.91071042 -68.78173828 77.10400391 C-70.6323275 59.26465501 -70.6323275 59.26465501 -68 54 C-67.01 54 -66.02 54 -65 54 C-64.96261719 55.06476563 -64.92523438 56.12953125 -64.88671875 57.2265625 C-64.48274882 66.75407195 -63.43006433 75.73758089 -61 85 C-60.78472656 85.84175781 -60.56945313 86.68351562 -60.34765625 87.55078125 C-58.62688736 93.44619654 -55.69538728 98.12919206 -52 103 C-51.44699219 103.7425 -50.89398438 104.485 -50.32421875 105.25 C-44.68033572 112.21119192 -37.60971289 116.47906102 -30 121 C-30.32363525 119.99912354 -30.64727051 118.99824707 -30.98071289 117.96704102 C-32.07526586 114.12262946 -32.26957928 110.53359427 -32.30859375 106.52734375 C-32.33373755 105.1191362 -32.35913579 103.71093317 -32.38476562 102.30273438 C-32.41352035 100.11516343 -32.43758409 97.92767043 -32.45629883 95.73999023 C-32.47804999 93.60622547 -32.51746815 91.47331056 -32.55859375 89.33984375 C-32.57204834 88.07519287 -32.58550293 86.81054199 -32.59936523 85.50756836 C-33.24455553 79.8589096 -35.49561371 76.08615405 -39.58203125 72.23046875 C-40.26716797 71.56853516 -40.95230469 70.90660156 -41.65820312 70.22460938 C-43.0823641 68.87791863 -44.50683792 67.53155865 -45.93164062 66.18554688 C-53.77087828 58.61030599 -59.57786916 50.97830166 -60.5 39.8125 C-60.23583252 31.18302883 -55.1786486 23.84704362 -49.4375 17.75 C-35.09605424 4.41459596 -19.18592737 -1.13451607 0 0 Z M-47.0625 21.5625 C-52.44611256 27.00935618 -55.4280645 31.58128074 -55.4375 39.375 C-55.03547877 51.65744174 -47.51952627 58.82773703 -39 67 C-36.82443842 68.25194333 -36.82443842 68.25194333 -35 69 C-34 70.6875 -34 70.6875 -33 73 C-32.33097656 73.90621094 -31.66195312 74.81242187 -30.97265625 75.74609375 C-27.70692114 81.42021635 -28.44069011 88.02029582 -28.4375 94.375 C-28.42659416 108.22797667 -28.42659416 108.22797667 -23.25 120.8125 C-16.90452536 126.98171146 -10.47479352 128.3065829 -1.93847656 128.31469727 C12.73571159 128.056478 27.2864727 122.10132574 38 112 C37.67 111.34 37.34 110.68 37 110 C35.72769531 110.05220703 35.72769531 110.05220703 34.4296875 110.10546875 C17.03240403 110.50694452 3.14754497 106.57730108 -9.65234375 94.40625 C-23.14496472 80.57687477 -29.62135324 64.52360605 -29.47827148 45.33618164 C-29.11712865 31.49314733 -23.78262381 20.55719505 -15 10 C-13.33835417 8.66041474 -11.6729697 7.32541614 -10 6 C-10 5.34 -10 4.68 -10 4 C-23.5772025 4 -37.70415015 12.37090176 -47.0625 21.5625 Z " fill="#161516" transform="translate(116,12)"/>
<path d="M0 0 C4.795835 0.42316191 7.79538631 2.5699361 11 6 C16.70154893 13.55786718 19.11036781 19.42786374 18 29 C16.29210586 34.13134114 14.26163608 37.22900017 9.625 40.0625 C1.37988199 42.19485811 1.37988199 42.19485811 -2.890625 40.05078125 C-6.54837731 37.61484116 -9.29731173 35.15030265 -11 31 C-10.6875 28.6875 -10.6875 28.6875 -10 27 C-7.36 27 -4.72 27 -2 27 C-2.15984375 26.50113281 -2.3196875 26.00226563 -2.484375 25.48828125 C-3.1948248 22.05982276 -3.22424947 18.67347739 -3.25 15.1875 C-3.270625 14.50107422 -3.29125 13.81464844 -3.3125 13.10742188 C-3.35098381 8.02274873 -2.26189967 4.55356117 0 0 Z " fill="#19181A" transform="translate(138,60)"/>
<path d="M0 0 C5.28686119 2.32301477 8.52056137 6.444606 11.375 11.375 C13.02317073 18.29731707 12.2067626 23.72008991 9 30 C3.93919667 28.01182726 1.3674668 24.22628543 -0.75 19.375 C-2.66008813 13.88480132 -3.34948104 7.08157357 -0.98046875 1.671875 C-0.65691406 1.12015625 -0.33335937 0.5684375 0 0 Z " fill="#F4F4F5" transform="translate(140,65)"/>
<path d="M0 0 C5.65668422 0.4991192 8.87509273 3.72103695 12.5625 7.67578125 C13.98503837 9.41916387 15.10699623 10.9329456 16 13 C15.3125 16.4375 15.3125 16.4375 14 19 C13.34 18.01 12.68 17.02 12 16 C11.05329569 14.65838474 10.09406198 13.32555628 9.125 12 C8.63257813 11.319375 8.14015625 10.63875 7.6328125 9.9375 C5.93185455 7.91913842 4.16357888 6.49858278 2 5 C-0.17272706 12.38037447 0.86827584 20.50232747 2 28 C-1.63423209 30.32590854 -4.77088331 30.16265833 -9 30 C-9 29.34 -9 28.68 -9 28 C-6.36 28 -3.72 28 -1 28 C-1.48533203 27.00613281 -1.48533203 27.00613281 -1.98046875 25.9921875 C-3.22792882 22.33105948 -3.33035447 18.94585678 -3.3125 15.125 C-3.32861328 14.44308594 -3.34472656 13.76117188 -3.36132812 13.05859375 C-3.36613374 8.01269757 -2.2362765 4.51975673 0 0 Z " fill="#181819" transform="translate(138,60)"/>
<path d="M0 0 C2.98992513 1.03100867 3.93871086 1.90005496 5.6184082 4.63916016 C7.17333133 8.42164324 7.34521523 11.07321228 7.29296875 15.1484375 C7.28872391 15.80582916 7.28447906 16.46322083 7.28010559 17.14053345 C7.26344977 19.21912391 7.2258262 21.29670774 7.1875 23.375 C7.17243605 24.79295464 7.15875065 26.21092464 7.14648438 27.62890625 C7.11359038 31.0862589 7.06190165 34.54303103 7 38 C5.68 38.66 4.36 39.32 3 40 C2.98541748 39.12263184 2.97083496 38.24526367 2.95581055 37.34130859 C2.8945032 34.06450679 2.82030667 30.78851056 2.73754883 27.51220703 C2.70443709 26.0982551 2.67636284 24.68417536 2.65356445 23.27001953 C2.61976225 21.22894177 2.56744036 19.18902072 2.51171875 17.1484375 C2.48553467 15.92302246 2.45935059 14.69760742 2.43237305 13.43505859 C1.96421552 9.71570432 0.75717386 7.27741208 -1 4 C-0.6875 1.625 -0.6875 1.625 0 0 Z " fill="#0B0A0B" transform="translate(81,84)"/>
<path d="M0 0 C2.08599418 3.12899128 2.77754602 5.51668391 3.75 9.125 C5.74517798 15.82042874 8.50340031 21.7680512 13.703125 26.57421875 C14.13109375 27.04472656 14.5590625 27.51523438 15 28 C14.6875 30.6875 14.6875 30.6875 14 33 C14.99 33.33 15.98 33.66 17 34 C15.515 34.495 15.515 34.495 14 35 C-1 17.76666667 -1 17.76666667 -1 11 C-0.34 11 0.32 11 1 11 C0.67 7.37 0.34 3.74 0 0 Z " fill="#171517" transform="translate(52,90)"/>
<path d="M0 0 C1.32 0.33 2.64 0.66 4 1 C3.36949114 5.87211393 1.32162911 9.80260078 -0.875 14.125 C-1.22691406 14.84042969 -1.57882813 15.55585937 -1.94140625 16.29296875 C-2.28816406 16.98261719 -2.63492188 17.67226562 -2.9921875 18.3828125 C-3.30526855 19.00559082 -3.61834961 19.62836914 -3.94091797 20.27001953 C-5.08748446 22.14290338 -6.39411074 23.51162874 -8 25 C-8 24.34 -8 23.68 -8 23 C-9.32 22.67 -10.64 22.34 -12 22 C-11.62488281 21.53851563 -11.24976563 21.07703125 -10.86328125 20.6015625 C-6.0397562 14.4536943 -1.65138304 7.74196779 0 0 Z " fill="#1A191A" transform="translate(172,94)"/>
<path d="M0 0 C0.33 0.99 0.66 1.98 1 3 C-1.64 3 -4.28 3 -7 3 C-7 3.66 -7 4.32 -7 5 C-5.1858073 4.71905418 -3.37364999 4.42493567 -1.5625 4.125 C-0.55316406 3.96257812 0.45617187 3.80015625 1.49609375 3.6328125 C2.32238281 3.42398438 3.14867187 3.21515625 4 3 C4.33 2.34 4.66 1.68 5 1 C5.33 1.99 5.66 2.98 6 4 C5.01 5.485 5.01 5.485 4 7 C4.66 7.45375 5.32 7.9075 6 8.375 C6.66 8.91125 7.32 9.4475 8 10 C8 10.66 8 11.32 8 12 C1.6 12.36923077 1.6 12.36923077 -1.4375 10.5 C-1.953125 10.005 -2.46875 9.51 -3 9 C-3 9.66 -3 10.32 -3 11 C-3.99 11 -4.98 11 -6 11 C-7.75 8.75 -7.75 8.75 -9 6 C-8.6875 3.6875 -8.6875 3.6875 -8 2 C-5.36 2 -2.72 2 0 2 C0 1.34 0 0.68 0 0 Z " fill="#282729" transform="translate(136,85)"/>
<path d="M0 0 C1.63001953 0.01353516 1.63001953 0.01353516 3.29296875 0.02734375 C4.12441406 0.03894531 4.95585938 0.05054688 5.8125 0.0625 C5.08933681 4.43954038 2.99037243 6.14076139 -0.33203125 8.8671875 C-2.71693543 10.40356788 -4.41272966 10.5670037 -7.1875 10.0625 C-6.1975 8.0825 -5.2075 6.1025 -4.1875 4.0625 C-6.4975 4.3925 -8.8075 4.7225 -11.1875 5.0625 C-10.375 3.125 -10.375 3.125 -9.1875 1.0625 C-5.90230525 -0.03256492 -3.45086585 -0.03710608 0 0 Z " fill="#0C0C0C" transform="translate(110.1875,11.9375)"/>
<path d="M0 0 C0.66 0.33 1.32 0.66 2 1 C1.67 1.66 1.34 2.32 1 3 C1.66 3.66 2.32 4.32 3 5 C2.38511719 5.65226562 1.77023438 6.30453125 1.13671875 6.9765625 C0.32847656 7.85054687 -0.47976562 8.72453125 -1.3125 9.625 C-2.11300781 10.48351563 -2.91351563 11.34203125 -3.73828125 12.2265625 C-6.01794872 15.02200966 -7.51580738 17.72420916 -9 21 C-9.33 20.01 -9.66 19.02 -10 18 C-10.99 18.33 -11.98 18.66 -13 19 C-11.57667134 14.94388206 -9.61408397 11.82462748 -7.0625 8.375 C-6.37285156 7.43398438 -5.68320313 6.49296875 -4.97265625 5.5234375 C-3.40343854 3.51608177 -1.85661677 1.73439435 0 0 Z " fill="#151416" transform="translate(104,18)"/>
<path d="M0 0 C-0.54226981 3.79588866 -2.20127563 5.47211993 -5 8 C-5.99 7.67 -6.98 7.34 -8 7 C-8 6.34 -8 5.68 -8 5 C-12.95 5 -17.9 5 -23 5 C-23 4.67 -23 4.34 -23 4 C-21.576875 3.87625 -21.576875 3.87625 -20.125 3.75 C-16.77445466 3.30144829 -14.02727597 2.23057493 -10.9375 0.875 C-6.89286568 -0.84165396 -4.3254714 -1.36593834 0 0 Z " fill="#0B0A0A" transform="translate(164,117)"/>
<path d="M0 0 C-0.99 0.33 -1.98 0.66 -3 1 C-3 1.99 -3 2.98 -3 4 C-3 4.33 -3 4.66 -3 5 C-4.91666667 5.47916667 -6.83333333 5.95833333 -8.75 6.4375 C-9.81734375 6.70433594 -10.8846875 6.97117187 -11.984375 7.24609375 C-13.78645833 7.69661458 -15.58854167 8.14713542 -17.390625 8.59765625 C-17.92171875 8.73042969 -18.4528125 8.86320312 -19 9 C-19.66 7.68 -20.32 6.36 -21 5 C-4.5479249 -1.81916996 -4.5479249 -1.81916996 0 0 Z " fill="#232223" transform="translate(104,13)"/>
<path d="M0 0 C-0.66 4.95 -1.32 9.9 -2 15 C-3.65 15 -5.3 15 -7 15 C-7.38289206 5.23625255 -7.38289206 5.23625255 -5 1 C-3 0 -3 0 0 0 Z " fill="#201E1F" transform="translate(63,41)"/>
<path d="M0 0 C4.44003126 5.49718156 6.42938056 9.84365732 6 17 C1.79205414 13.24696721 -0.16342168 10.21974892 -2 5 C-2 4.01 -2 3.02 -2 2 C-1.34 2 -0.68 2 0 2 C0 1.34 0 0.68 0 0 Z " fill="#171415" transform="translate(59,54)"/>
<path d="M0 0 C2.87193652 2.39983736 3.54537958 4.28784123 4.1875 7.9375 C4.34605469 8.79214844 4.50460938 9.64679688 4.66796875 10.52734375 C5 13 5 13 5 17 C1.36576791 19.32590854 -1.77088331 19.16265833 -6 19 C-6 18.34 -6 17.68 -6 17 C-3.36 17 -0.72 17 2 17 C1.50886719 15.95779297 1.50886719 15.95779297 1.0078125 14.89453125 C-0.12662831 11.63631172 -0.20056055 9.12550498 -0.125 5.6875 C-0.10695312 4.61886719 -0.08890625 3.55023438 -0.0703125 2.44921875 C-0.04710937 1.64097656 -0.02390625 0.83273438 0 0 Z " fill="#080709" transform="translate(135,71)"/>
<path d="M0 0 C2.66666667 2 5.33333333 4 8 6 C8.74765625 6.51949219 9.4953125 7.03898437 10.265625 7.57421875 C10.83796875 8.04472656 11.4103125 8.51523438 12 9 C12 9.66 12 10.32 12 11 C7.83239107 11.49614392 6.25508321 11.16845118 2.6875 8.8125 C0.00457086 6.00478346 -0.89386105 4.82100238 -1 1 C-0.67 0.67 -0.34 0.34 0 0 Z " fill="#0E0E0F" transform="translate(67,120)"/>
<path d="M0 0 C1.65 0.33 3.3 0.66 5 1 C5 1.99 5 2.98 5 4 C3.68 4 2.36 4 1 4 C0.95101562 4.69867188 0.90203125 5.39734375 0.8515625 6.1171875 C0.77679688 7.02726562 0.70203125 7.93734375 0.625 8.875 C0.52058594 10.23238281 0.52058594 10.23238281 0.4140625 11.6171875 C0 14 0 14 -2 16 C-3.19937786 9.62740199 -3.06475363 5.76173683 0 0 Z " fill="#171616" transform="translate(138,60)"/>
<path d="M0 0 C0.6796875 1.75 0.6796875 1.75 1 4 C-2.21535121 9.75615322 -7.12890884 13.03453878 -13.08203125 15.50390625 C-15 16 -15 16 -17 15 C-15.91332031 14.38125 -15.91332031 14.38125 -14.8046875 13.75 C-8.42246069 9.93768319 -3.91235284 6.3555099 0 0 Z " fill="#313031" transform="translate(159,91)"/>
<path d="M0 0 C2.67857172 0.36196915 4.60980914 0.73987276 6.875 2.25 C8 4 8 4 7.6875 6.6875 C7.460625 7.450625 7.23375 8.21375 7 9 C7.99 9.33 8.98 9.66 10 10 C9.01 10.33 8.02 10.66 7 11 C5.82439821 9.73742767 4.65977135 8.46462916 3.5 7.1875 C2.8503125 6.47980469 2.200625 5.77210937 1.53125 5.04296875 C0 3 0 3 0 0 Z " fill="#19191A" transform="translate(59,114)"/>
<path d="M0 0 C0.59425781 0.19851562 1.18851563 0.39703125 1.80078125 0.6015625 C1.23488281 0.86710937 0.66898438 1.13265625 0.0859375 1.40625 C-0.64753906 1.75945312 -1.38101563 2.11265625 -2.13671875 2.4765625 C-3.23306641 2.99863281 -3.23306641 2.99863281 -4.3515625 3.53125 C-6.36254334 4.4700602 -6.36254334 4.4700602 -7.19921875 6.6015625 C-6.12671875 6.2715625 -5.05421875 5.9415625 -3.94921875 5.6015625 C-0.19921875 4.6015625 -0.19921875 4.6015625 3.80078125 4.6015625 C3.80078125 5.2615625 3.80078125 5.9215625 3.80078125 6.6015625 C-4.62779018 8.88727679 -4.62779018 8.88727679 -9.19921875 8.6015625 C-9.07421875 6.3515625 -9.07421875 6.3515625 -8.19921875 3.6015625 C-3.23924338 -0.58686115 -3.23924338 -0.58686115 0 0 Z " fill="#616163" transform="translate(173.19921875,81.3984375)"/>
<path d="M0 0 C0.99 0.33 1.98 0.66 3 1 C2.030625 1.721875 1.06125 2.44375 0.0625 3.1875 C-2.24223643 5.09188315 -2.92107934 5.73895475 -3.8125 8.6875 C-3.874375 9.450625 -3.93625 10.21375 -4 11 C-4.33 11.66 -4.66 12.32 -5 13 C-7.5625 13.625 -7.5625 13.625 -10 14 C-8.38798165 8.2683792 -4.12110332 4.12110332 0 0 Z " fill="#111011" transform="translate(69,28)"/>
<path d="M0 0 C0.804375 0.4640625 0.804375 0.4640625 1.625 0.9375 C4.3984957 2.17827439 7.00042837 2.5909675 10 3 C9.01 3.495 9.01 3.495 8 4 C8 4.66 8 5.32 8 6 C8.99 6.33 9.98 6.66 11 7 C5.28341664 7.45732667 2.51350747 6.52273754 -2 3 C-1.34 2.67 -0.68 2.34 0 2 C0 1.34 0 0.68 0 0 Z " fill="#1F1E20" transform="translate(133,94)"/>
<path d="M0 0 C8.86956522 0.73913043 8.86956522 0.73913043 12 4 C12 4.66 12 5.32 12 6 C8.8125 6.375 8.8125 6.375 5 6 C2.8596502 4.18811972 1.61011698 2.34198833 0 0 Z " fill="#E8E8E8" transform="translate(132,91)"/>
<path d="M0 0 C5.875 4.625 5.875 4.625 7 8 C5.68 8.33 4.36 8.66 3 9 C3 9.66 3 10.32 3 11 C2.01 11 1.02 11 0 11 C0 10.34 0 9.68 0 9 C0.66 8.67 1.32 8.34 2 8 C2 7.34 2 6.68 2 6 C0.0399719 4.36323743 0.0399719 4.36323743 -2 3 C-1 1 -1 1 0 0 Z " fill="#0F0F0F" transform="translate(141,89)"/>
<path d="M0 0 C0.66 0.33 1.32 0.66 2 1 C2.33 1.99 2.66 2.98 3 4 C0.36 6.64 -2.28 9.28 -5 12 C-5.66 11.67 -6.32 11.34 -7 11 C-5.62487859 8.03820004 -3.99630574 5.57856158 -2 3 C-1.34 2.01 -0.68 1.02 0 0 Z " fill="#1D1C1C" transform="translate(72,25)"/>
<path d="M0 0 C0.99 0.33 1.98 0.66 3 1 C3.33 4.96 3.66 8.92 4 13 C2.02 13.99 2.02 13.99 0 15 C0 10.05 0 5.1 0 0 Z " fill="#040204" transform="translate(84,109)"/>
<path d="M0 0 C0.99 0 1.98 0 3 0 C3.25 7.625 3.25 7.625 1 11 C-1 9 -1 9 -1.1875 5.5 C-1 2 -1 2 0 0 Z " fill="#211F22" transform="translate(48,66)"/>
<path d="M0 0 C0.66 0.33 1.32 0.66 2 1 C1.67 1.66 1.34 2.32 1 3 C1.66 3.66 2.32 4.32 3 5 C-0.69969252 8.03903314 -3.23004695 9 -8 9 C-5.36 6.03 -2.72 3.06 0 0 Z " fill="#272627" transform="translate(104,18)"/>
<path d="M0 0 C0.66 0.33 1.32 0.66 2 1 C2 2.32 2 3.64 2 5 C-0.35438733 6.42944945 -1.48032433 7.08661261 -4.25 6.625 C-4.8275 6.41875 -5.405 6.2125 -6 6 C-6 5.01 -6 4.02 -6 3 C-4.03533587 1.93224776 -2.03144641 0.93446535 0 0 Z " fill="#1D1D1D" transform="translate(143,131)"/>
<path d="M0 0 C3.1611016 3.1611016 3.38812741 3.5561582 3.6875 7.6875 C3.75324219 8.49574219 3.81898438 9.30398437 3.88671875 10.13671875 C3.92410156 10.75160156 3.96148437 11.36648437 4 12 C2.68 12 1.36 12 0 12 C0 8.04 0 4.08 0 0 Z " fill="#0F0E0F" transform="translate(135,71)"/>
<path d="M0 0 C1.875 1.3125 1.875 1.3125 2.625 3.4375 C2.7075 4.05625 2.79 4.675 2.875 5.3125 C1.885 5.6425 0.895 5.9725 -0.125 6.3125 C-1.775 4.3325 -3.425 2.3525 -5.125 0.3125 C-2.125 -0.6875 -2.125 -0.6875 0 0 Z " fill="#0A090B" transform="translate(109.125,103.6875)"/>
<path d="M0 0 C0 0.99 0 1.98 0 3 C-0.99 3.33 -1.98 3.66 -3 4 C-5.6875 2.0625 -5.6875 2.0625 -8 0 C-8.33 0.66 -8.66 1.32 -9 2 C-9 1.01 -9 0.02 -9 -1 C-5.38055101 -2.34053666 -3.42632833 -1.61798838 0 0 Z " fill="#282729" transform="translate(148,65)"/>
<path d="M0 0 C0.66 0 1.32 0 2 0 C2.33 2.31 2.66 4.62 3 7 C2.01 7.33 1.02 7.66 0 8 C-0.38063221 5.6739143 -0.71269945 3.33944736 -1 1 C-0.67 0.67 -0.34 0.34 0 0 Z " fill="#0C0A0E" transform="translate(89,72)"/>
<path d="M0 0 C2.00293347 3.00440021 2.49271626 4.70993945 3.125 8.1875 C3.29257812 9.08855469 3.46015625 9.98960938 3.6328125 10.91796875 C3.75398438 11.60503906 3.87515625 12.29210937 4 13 C2.35 13 0.7 13 -1 13 C-1 12.34 -1 11.68 -1 11 C-0.34 11 0.32 11 1 11 C0.67 7.37 0.34 3.74 0 0 Z " fill="#393839" transform="translate(52,90)"/>
<path d="M0 0 C1.32 0.33 2.64 0.66 4 1 C4 1.66 4 2.32 4 3 C4.66 3 5.32 3 6 3 C6.33 2.34 6.66 1.68 7 1 C7.33 1.99 7.66 2.98 8 4 C7.01 4.99 6.02 5.98 5 7 C3.29115995 5.37660195 1.62553283 3.70680947 0 2 C0 1.34 0 0.68 0 0 Z " fill="#232325" transform="translate(74,80)"/>
<path d="M0 0 C1.875 0.3125 1.875 0.3125 4 1 C4.66 1.99 5.32 2.98 6 4 C5.34 4.66 4.68 5.32 4 6 C2.68 5.34 1.36 4.68 0 4 C0 2.68 0 1.36 0 0 Z " fill="#131215" transform="translate(102,99)"/>
<path d="M0 0 C-4.30769231 3.93846154 -4.30769231 3.93846154 -7.8125 4.25 C-8.534375 4.1675 -9.25625 4.085 -10 4 C-4.7704918 -1.59016393 -4.7704918 -1.59016393 0 0 Z " fill="#181617" transform="translate(113,18)"/>
<path d="M0 0 C1.98 0.495 1.98 0.495 4 1 C4 1.99 4 2.98 4 4 C2.35 4.33 0.7 4.66 -1 5 C-0.67 3.35 -0.34 1.7 0 0 Z " fill="#101010" transform="translate(145,130)"/>
<path d="M0 0 C0.33 1.32 0.66 2.64 1 4 C-0.98 4.33 -2.96 4.66 -5 5 C-5 3.68 -5 2.36 -5 1 C-2 0 -2 0 0 0 Z " fill="#0C0B0A" transform="translate(92,130)"/>
<path d="M0 0 C0.66 0.33 1.32 0.66 2 1 C2 2.65 2 4.3 2 6 C1.01 6.33 0.02 6.66 -1 7 C-1.99 5.68 -2.98 4.36 -4 3 C-2.68 2.01 -1.36 1.02 0 0 Z " fill="#1F1F1F" transform="translate(150,126)"/>
<path d="M0 0 C0 0.99 0 1.98 0 3 C-2.7219246 4.3609623 -4.1831957 3.70366248 -7.125 3.0625 C-8.03507813 2.86785156 -8.94515625 2.67320313 -9.8828125 2.47265625 C-10.58148438 2.31667969 -11.28015625 2.16070312 -12 2 C-12 1.67 -12 1.34 -12 1 C-6.06 0.505 -6.06 0.505 0 0 Z " fill="#E9E9E6" transform="translate(153,122)"/>
<path d="M0 0 C0.66 0.99 1.32 1.98 2 3 C1.125 5.6875 1.125 5.6875 0 8 C-2 7 -2 7 -2.8125 5.125 C-3 3 -3 3 -1.5625 1.25 C-1.046875 0.8375 -0.53125 0.425 0 0 Z " fill="#1D1C1E" transform="translate(92,77)"/>
<path d="M0 0 C0.66 0 1.32 0 2 0 C2.66 1.98 3.32 3.96 4 6 C2.68 6 1.36 6 0 6 C0 4.02 0 2.04 0 0 Z " fill="#100F11" transform="translate(58,109)"/>
<path d="M0 0 C0.66 0.66 1.32 1.32 2 2 C1.75 4.0625 1.75 4.0625 1 6 C0.01 6.495 0.01 6.495 -1 7 C-1.33 5.35 -1.66 3.7 -2 2 C-1.34 2 -0.68 2 0 2 C0 1.34 0 0.68 0 0 Z " fill="#090607" transform="translate(59,54)"/>
<path d="M0 0 C0.33 1.32 0.66 2.64 1 4 C-0.65 4.33 -2.3 4.66 -4 5 C-4 3.68 -4 2.36 -4 1 C-2 0 -2 0 0 0 Z " fill="#0E0E0E" transform="translate(84,19)"/>
</svg>
